<svg width="118" height="108" viewBox="0 0 118 108" fill="none" xmlns="http://www.w3.org/2000/svg">
<g filter="url(#filter0_dd_53_738)">
<path d="M73.75 35H73.7992M61.4583 91.875H29.5C25.5881 91.875 21.8363 90.4922 19.0702 88.0308C16.304 85.5694 14.75 82.231 14.75 78.75V26.25C14.75 22.769 16.304 19.4306 19.0702 16.9692C21.8363 14.5078 25.5881 13.125 29.5 13.125H88.5C92.4119 13.125 96.1637 14.5078 98.9298 16.9692C101.696 19.4306 103.25 22.769 103.25 26.25V54.6875" stroke="black" stroke-width="7" stroke-linecap="round" stroke-linejoin="round"/>
<path d="M14.75 70L39.3333 48.125C43.896 44.2181 49.5207 44.2181 54.0833 48.125L71.2917 63.4375" stroke="black" stroke-width="7" stroke-linecap="round" stroke-linejoin="round"/>
<path d="M68.8334 61.25L73.75 56.875C77.0885 54.0181 80.9923 53.2481 84.6355 54.5738M93.4167 96.25V70M93.4167 70L108.167 83.125M93.4167 70L78.6667 83.125" stroke="black" stroke-width="7" stroke-linecap="round" stroke-linejoin="round"/>
</g>
<defs>
<filter id="filter0_dd_53_738" x="-4" y="0" width="126" height="113" filterUnits="userSpaceOnUse" color-interpolation-filters="sRGB">
<feFlood flood-opacity="0" result="BackgroundImageFix"/>
<feColorMatrix in="SourceAlpha" type="matrix" values="0 0 0 0 0 0 0 0 0 0 0 0 0 0 0 0 0 0 127 0" result="hardAlpha"/>
<feOffset dy="4"/>
<feGaussianBlur stdDeviation="2"/>
<feComposite in2="hardAlpha" operator="out"/>
<feColorMatrix type="matrix" values="0 0 0 0 0 0 0 0 0 0 0 0 0 0 0 0 0 0 0.25 0"/>
<feBlend mode="normal" in2="BackgroundImageFix" result="effect1_dropShadow_53_738"/>
<feColorMatrix in="SourceAlpha" type="matrix" values="0 0 0 0 0 0 0 0 0 0 0 0 0 0 0 0 0 0 127 0" result="hardAlpha"/>
<feOffset dy="4"/>
<feGaussianBlur stdDeviation="2"/>
<feComposite in2="hardAlpha" operator="out"/>
<feColorMatrix type="matrix" values="0 0 0 0 0 0 0 0 0 0 0 0 0 0 0 0 0 0 0.25 0"/>
<feBlend mode="normal" in2="effect1_dropShadow_53_738" result="effect2_dropShadow_53_738"/>
<feBlend mode="normal" in="SourceGraphic" in2="effect2_dropShadow_53_738" result="shape"/>
</filter>
</defs>
</svg>
